<svg xmlns="http://www.w3.org/2000/svg" width="20" height="14" viewBox="0 0 20 14" fill="none">
  <path d="M6.86865 13.5499C7.10899 13.5521 7.34042 13.4599 7.51167 13.2936C7.51178 13.2935 7.51189 13.2934 7.512 13.2933L19.5155 2.02619L19.5158 2.02595C19.8839 1.67562 19.896 1.09904 19.5429 0.734275L19.5429 0.734231C19.1897 0.370256 18.6044 0.35371 18.2303 0.696943L18.2299 0.697328L6.8781 11.352L1.78624 6.38015C1.78623 6.38014 1.78621 6.38013 1.7862 6.38011C1.42336 6.02387 0.835596 6.0239 0.472516 6.38014L0.472487 6.38017C0.109171 6.73721 0.109171 7.31594 0.472487 7.67298L0.472564 7.67306L6.20719 13.2846C6.20723 13.2846 6.20726 13.2847 6.2073 13.2847C6.38224 13.4573 6.62086 13.5529 6.86865 13.5499ZM6.86865 13.5499C6.86847 13.5499 6.86828 13.5499 6.8681 13.5499L6.86857 13.4999L6.86921 13.5499C6.86902 13.5499 6.86884 13.5499 6.86865 13.5499Z" fill="#2CB680" stroke="#2CB680" stroke-width="0.1"/>
</svg>